# xmcd CD database file
#
# Track frame offsets:
#	150
#	12759
#	25590
#	37592
#	51707
#	66448
#	80058
#	93714
#	106429
#	121979
#	136058
#	149228
#	162590
#	176424
#	189054
#	203177
#	217232
#	229190
#	243339
#	255763
#
# Disc length: 3567 seconds
#
# Revision: 1
# Processed by: cddbd v1.5.2PL0 Copyright (c) Steve Scherf et al.
# Submitted via: CDex 1.51
#
DISCID=1c0ded14
DTITLE=Buck Clayton - Quadromania (2)
DYEAR=1990
DGENRE=Jazz
TTITLE0=Swingin' at the Daisy Chain
TTITLE1=Why was I born
TTITLE2=I've found a new Baby
TTITLE3=Don't You miss your Baby
TTITLE4=Can't help lovin' dat Man
TTITLE5=Blues in the Dark
TTITLE6=Song of the Islands
TTITLE7=What's Your Number
TTITLE8=I'm Yours
TTITLE9=Under a Blanket of Blue
TTITLE10=Beyond the blue Horizon
TTITLE11=A Shanty in old Shanty Town
TTITLE12=Deep Purple
TTITLE13=Little white Lies
TTITLE14=If Dreams come true
TTITLE15=I can't get started
TTITLE16=Stompin' at the Savoy
TTITLE17=Blues too
TTITLE18=Skip a Page
TTITLE19=I don't know his Name
EXTD=YEAR: 1990
EXTT0=
EXTT1=
EXTT2=
EXTT3=
EXTT4=
EXTT5=
EXTT6=
EXTT7=
EXTT8=
EXTT9=
EXTT10=
EXTT11=
EXTT12=
EXTT13=
EXTT14=
EXTT15=
EXTT16=
EXTT17=
EXTT18=
EXTT19=
PLAYORDER=
